<svg xmlns="http://www.w3.org/2000/svg" viewBox="0 0 1024 1024"><path d="M888 792H200V168c0-4.4-3.6-8-8-8h-56c-4.4 0-8 3.6-8 8v688c0 4.4 3.6 8 8 8h752c4.4 0 8-3.6 8-8v-56c0-4.4-3.6-8-8-8zM288 660c0 4.4 3.6 8 8 8h56c4.4 0 8-3.6 8-8V540c0-4.4-3.6-8-8-8h-56c-4.4 0-8 3.6-8 8v120zm160 0c0 4.4 3.6 8 8 8h56c4.4 0 8-3.6 8-8V400c0-4.4-3.6-8-8-8h-56c-4.4 0-8 3.6-8 8v260zm160 0c0 4.4 3.6 8 8 8h56c4.4 0 8-3.6 8-8V280c0-4.4-3.6-8-8-8h-56c-4.4 0-8 3.6-8 8v380zm160 0c0 4.4 3.6 8 8 8h56c4.4 0 8-3.6 8-8V480c0-4.4-3.6-8-8-8h-56c-4.4 0-8 3.6-8 8v180z"/></svg>
