<svg viewBox="0 0 1024 1024" xmlns="http://www.w3.org/2000/svg"><path d="M794.7 229.3L570.7 5.3C553.3-12.1 526.7-12.1 509.3 5.3L229.3 285.3c-17.3 17.3-17.3 45.3 0 62.7l224 224c17.3 17.3 45.3 17.3 62.7 0l280-280c17.4-17.4 17.4-45.4 0-62.7zM512 341.3c-41.6 0-75.3-33.7-75.3-75.3s33.7-75.3 75.3-75.3 75.3 33.7 75.3 75.3-33.7 75.3-75.3 75.3zm226.7 226.7L512 756.7 285.3 530c-33.3-33.3-86.7-33.3-120 0L111.3 584c-33.3 33.3-33.3 86.7 0 120l270.7 270.7c33.3 33.3 86.7 33.3 120 0L912.7 704c33.3-33.3 33.3-86.7 0-120L738.7 568c-33.3-33.3-86.7-33.3-120 0zM512 896c-35.3 0-64-28.7-64-64s28.7-64 64-64 64 28.7 64 64-28.7 64-64 64z"/></svg>